<svg width="50" height="50" viewBox="0 0 50 50" fill="none" xmlns="http://www.w3.org/2000/svg">
<path d="M34.8737 19.8621L34.1435 22.6027L36.9732 22.7947C42.2889 23.1553 46.4907 27.5844 46.4907 32.9929C46.4907 38.6383 41.9141 43.2148 36.2687 43.2148C32.2453 43.2148 28.7604 40.8907 27.0915 37.5011L24.9953 33.2441L22.8992 37.5011C21.2302 40.8907 17.7453 43.2148 13.722 43.2148C8.07653 43.2148 3.5 38.6383 3.5 32.9929C3.5 27.5844 7.7018 23.1553 13.0174 22.7947L15.8472 22.6027L15.117 19.8621C14.8933 19.0225 14.7734 18.138 14.7734 17.222C14.7734 11.5765 19.3499 7 24.9953 7C30.6408 7 35.2173 11.5765 35.2173 17.222C35.2173 18.138 35.0974 19.0225 34.8737 19.8621Z" fill="#2C2C2C"/>
</svg>
