<svg width="16" height="16" viewBox="0 0 16 16" fill="none" xmlns="http://www.w3.org/2000/svg">
<path d="M6.14645 6.14645C6.34171 5.95118 6.65829 5.95118 6.85355 6.14645L8 7.29289L9.14645 6.14645C9.34171 5.95118 9.65829 5.95118 9.85355 6.14645C10.0488 6.34171 10.0488 6.65829 9.85355 6.85355L8.70711 8L9.85355 9.14645C10.0488 9.34171 10.0488 9.65829 9.85355 9.85355C9.65829 10.0488 9.34171 10.0488 9.14645 9.85355L8 8.70711L6.85355 9.85355C6.65829 10.0488 6.34171 10.0488 6.14645 9.85355C5.95118 9.65829 5.95118 9.34171 6.14645 9.14645L7.29289 8L6.14645 6.85355C5.95118 6.65829 5.95118 6.34171 6.14645 6.14645Z" fill="black"/>
<path d="M4 0C2.89543 0 2 0.89543 2 2V14C2 15.1046 2.89543 16 4 16H12C13.1046 16 14 15.1046 14 14V2C14 0.89543 13.1046 0 12 0H4ZM4 1H12C12.5523 1 13 1.44772 13 2V14C13 14.5523 12.5523 15 12 15H4C3.44772 15 3 14.5523 3 14V2C3 1.44772 3.44772 1 4 1Z" fill="black"/>
</svg>
