<svg width="16" height="16" viewBox="0 0 16 16" fill="none" xmlns="http://www.w3.org/2000/svg">
<path d="M10.8536 6.14645C11.0488 6.34171 11.0488 6.65829 10.8536 6.85355L7.85355 9.85355C7.75979 9.94732 7.63261 10 7.5 10C7.36739 10 7.24021 9.94732 7.14645 9.85355L5.64645 8.35355C5.45118 8.15829 5.45118 7.84171 5.64645 7.64645C5.84171 7.45118 6.15829 7.45118 6.35355 7.64645L7.5 8.79289L10.1464 6.14645C10.3417 5.95118 10.6583 5.95118 10.8536 6.14645Z" fill="black"/>
<path d="M4 0C2.89543 0 2 0.89543 2 2V14C2 15.1046 2.89543 16 4 16H12C13.1046 16 14 15.1046 14 14V2C14 0.89543 13.1046 0 12 0H4ZM4 1H12C12.5523 1 13 1.44772 13 2V14C13 14.5523 12.5523 15 12 15H4C3.44772 15 3 14.5523 3 14V2C3 1.44772 3.44772 1 4 1Z" fill="black"/>
</svg>
